<?xml version="1.0" encoding="utf-8"?>
<!-- Generator: Adobe Illustrator 15.0.2, SVG Export Plug-In . SVG Version: 6.00 Build 0)  -->
<!DOCTYPE svg PUBLIC "-//W3C//DTD SVG 1.1//EN" "http://www.w3.org/Graphics/SVG/1.1/DTD/svg11.dtd">
<svg version="1.1" id="Layer_1" xmlns="http://www.w3.org/2000/svg" xmlns:xlink="http://www.w3.org/1999/xlink" x="0px" y="0px" viewBox="36 264.412 464.137 149.157" enable-background="new 36 264.412 464.137 149.157" xml:space="preserve">
<g>
	<g>
		<path fill="#000101" d="M454.215,317.738h-7.582v-12.555h-12.718v12.555h-6.195v7.826h6.195v22.827
			c0,6.277,1.55,13.044,12.393,13.044c2.771,0,6.521-0.327,8.152-0.489v-10.028c-0.652,0.082-2.445,0.245-3.832,0.245
			c-2.282,0-3.995-0.897-3.995-4.321v-21.278h7.582V317.738z M423.193,328.335c-0.081-9.782-7.5-12.554-19.321-12.554
			c-5.869,0-17.445,1.141-17.854,13.615h12.229c0.652-4.321,2.609-5.789,6.687-5.789c3.424,0,6.032,1.386,6.032,4.648v3.586
			l-4.647,0.652c-13.858,1.957-22.255,5.626-22.255,16.061c0,8.316,6.194,12.881,14.511,12.881c4.566,0,10.924-2.201,13.044-5.626
			h0.163c0.081,1.468,0.326,3.017,0.814,4.485h11.74c-1.061-2.691-1.143-6.033-1.143-9.05V328.335z M410.965,342.195
			c0,6.604-3.751,9.946-8.725,9.946c-3.098,0-5.951-1.468-5.951-4.892c0-3.505,2.937-4.727,6.115-5.625l8.561-2.446V342.195z
			 M356.946,360.294h12.718v-25.11c0-4.81,3.019-6.115,10.599-7.011l1.387-0.163l-0.081-11.251
			c-4.485,0.326-9.131,1.957-11.903,4.566v-4.403h-12.718L356.946,360.294L356.946,360.294z M320.136,333.39
			c0.569-5.706,4.974-8.315,8.643-8.315s8.232,1.957,8.642,8.315H320.136z M350.137,341.217
			c-0.081-13.37-5.462-25.436-21.277-25.436c-13.207,0-21.278,8.804-21.278,24.132c0,12.228,7.827,21.522,21.278,21.522
			c9.701,0,16.631-3.832,21.034-11.984l-9.539-4.973c-3.668,5.217-5.87,7.663-10.599,7.663c-4.076,0-9.376-2.609-9.458-10.924
			H350.137L350.137,341.217z M470.136,333.39c0.569-5.706,4.974-8.315,8.643-8.315s8.232,1.957,8.642,8.315H470.136z
			 M500.137,341.217c-0.081-13.37-5.462-25.436-21.277-25.436c-13.207,0-21.278,8.804-21.278,24.132
			c0,12.228,7.827,21.522,21.278,21.522c9.701,0,16.631-3.832,21.034-11.984l-9.539-4.973c-3.668,5.217-5.87,7.663-10.599,7.663
			c-4.076,0-9.376-2.609-9.458-10.924H500.137L500.137,341.217z M300.88,302.248h-12.717v58.046h12.717V302.248z M251.254,333.39
			c0.571-5.706,4.973-8.315,8.642-8.315c3.668,0,8.233,1.957,8.642,8.315H251.254z M281.255,341.217
			c-0.081-13.37-5.461-25.436-21.277-25.436c-13.207,0-21.278,8.804-21.278,24.132c0,12.228,7.826,21.522,21.278,21.522
			c9.7,0,16.63-3.832,21.033-11.984l-9.538-4.973c-3.669,5.217-5.87,7.663-10.599,7.663c-4.076,0-9.375-2.609-9.457-10.924H281.255
			L281.255,341.217z M75.132,328.335c-0.082-9.782-7.5-12.554-19.322-12.554c-5.869,0-17.446,1.141-17.854,13.615h12.229
			c0.652-4.321,2.609-5.789,6.686-5.789c3.424,0,6.032,1.386,6.032,4.648v3.586l-4.646,0.652C44.397,334.45,36,338.119,36,348.554
			c0,8.316,6.195,12.881,14.511,12.881c4.566,0,10.925-2.201,13.044-5.626h0.163c0.082,1.468,0.326,3.017,0.815,4.485h11.739
			c-1.06-2.691-1.141-6.033-1.141-9.05V328.335L75.132,328.335z M62.903,342.195c0,6.604-3.75,9.946-8.723,9.946
			c-3.098,0-5.952-1.468-5.952-4.892c0-3.505,2.936-4.727,6.115-5.625l8.56-2.446V342.195z"/>
	</g>
	<g>
		<path fill="#FFFFFF" d="M156.662,264.412c20.861,0,38.618,7.283,53.267,21.842c6.26,6.26,11.179,13.32,14.75,21.169
			c0.432,0.945,0.842,1.903,1.232,2.869c3.641,9.014,5.462,18.58,5.461,28.701c0,10.209-1.8,19.774-5.396,28.698
			c-3.593,8.922-8.899,16.802-15.913,23.637c-7.28,7.191-15.537,12.695-24.768,16.513c-9.237,3.82-18.778,5.729-28.633,5.729
			c-9.856,0-19.291-1.886-28.301-5.659c-9.013-3.773-17.092-9.234-24.237-16.381c-7.147-7.144-12.584-15.203-16.313-24.171
			c-3.729-8.968-5.594-18.421-5.594-28.364c0-9.856,1.884-19.334,5.662-28.435c0.415-1.007,0.854-2.003,1.316-2.991
			c3.691-7.901,8.734-15.051,15.13-21.445C118.529,271.652,135.974,264.412,156.662,264.412 M156.928,277.865
			c-17.046-0.001-31.386,5.949-43.016,17.846c-3.656,3.713-6.788,7.714-9.393,12c-1.565,2.576-2.941,5.257-4.125,8.043
			c-3.151,7.412-4.726,15.158-4.726,23.239c0,7.988,1.574,15.691,4.725,23.104c3.152,7.416,7.66,14.03,13.519,19.841
			c5.859,5.817,12.475,10.258,19.844,13.32c7.367,3.062,15.091,4.592,23.172,4.592c7.991,0,15.735-1.549,23.239-4.66
			c7.5-3.105,14.269-7.589,20.31-13.45c11.629-11.365,17.443-25.614,17.443-42.747c0-8.257-1.508-16.069-4.527-23.44
			c-1.149-2.807-2.5-5.497-4.047-8.07c-2.518-4.186-5.563-8.067-9.136-11.639C188.224,283.857,173.795,277.865,156.928,277.865"/>
		<path d="M209.345,307.482c1.548,2.573,2.899,5.263,4.047,8.072c3.02,7.369,4.53,15.181,4.53,23.438
			c0,11.889-2.867,22.356-8.465,31.468h15.32c0.416-0.916,0.823-1.833,1.2-2.77c3.597-8.921,5.395-18.486,5.395-28.698
			c0-10.121-1.821-19.687-5.459-28.698c-0.391-0.961-0.799-1.911-1.225-2.85h-15.368L209.345,307.482"/>
		<path d="M100.396,362.097c-3.153-7.41-4.728-15.113-4.728-23.104c0-8.078,1.574-15.824,4.728-23.24
			c1.185-2.785,2.558-5.463,4.126-8.042c0.055-0.09,0.114-0.177,0.171-0.266H89.259l-0.062,0.124
			c-0.461,0.986-0.9,1.982-1.318,2.991c-3.776,9.102-5.659,18.577-5.659,28.433c0,9.942,1.864,19.399,5.591,28.364
			c0.435,1.049,0.898,2.079,1.381,3.103h15.627C103.154,367.784,101.639,365.02,100.396,362.097"/>
		<path d="M155.995,326.607l-9.989,5.195c-1.063-2.22-2.375-3.776-3.927-4.663c-1.556-0.886-2.997-1.331-4.33-1.331
			c-6.658,0-9.986,4.395-9.986,13.184c0,3.996,0.842,7.19,2.531,9.587c1.685,2.399,4.171,3.596,7.455,3.596
			c4.351,0,7.413-2.13,9.19-6.392l9.188,4.661c-1.952,3.642-4.661,6.506-8.124,8.59c-3.461,2.088-7.28,3.13-11.452,3.13
			c-6.658,0-12.032-2.041-16.114-6.126c-4.082-4.083-6.126-9.766-6.126-17.046c0-7.103,2.065-12.739,6.194-16.912
			c4.128-4.175,9.342-6.26,15.645-6.26C145.385,315.82,152,319.417,155.995,326.607"/>
		<path d="M199.01,326.607l-9.853,5.195c-1.067-2.22-2.379-3.776-3.932-4.663c-1.555-0.885-3.042-1.331-4.462-1.331
			c-6.658,0-9.986,4.395-9.986,13.184c0,3.996,0.843,7.19,2.53,9.587c1.687,2.399,4.172,3.596,7.456,3.596
			c4.351,0,7.413-2.13,9.191-6.392l9.32,4.661c-2.044,3.642-4.794,6.506-8.257,8.59c-3.461,2.088-7.236,3.13-11.318,3.13
			c-6.748,0-12.141-2.041-16.181-6.126c-4.041-4.083-6.061-9.766-6.061-17.046c0-7.103,2.064-12.738,6.193-16.912
			c4.129-4.175,9.344-6.26,15.648-6.26C188.532,315.821,195.104,319.417,199.01,326.607"/>
	</g>
</g>
</svg>
